<svg xmlns="http://www.w3.org/2000/svg" width="1200" height="630" viewBox="0 0 1200 630">
  <defs>
    <linearGradient id="bg" x1="0" y1="0" x2="1" y2="1">
      <stop offset="0%" stop-color="#073f5f"/>
      <stop offset="100%" stop-color="#0a5c8a"/>
    </linearGradient>
  </defs>
  <rect width="1200" height="630" fill="url(#bg)"/>
  <g stroke="#ffffff" stroke-opacity="0.12" stroke-width="2">
    <path d="M0 120 H1200"/>
    <path d="M0 510 H1200"/>
    <path d="M120 0 V630"/>
    <path d="M1080 0 V630"/>
  </g>
  <g transform="translate(90,90)" fill="none" stroke="#ffffff" stroke-width="4" stroke-linecap="round" stroke-linejoin="round">
    <circle cx="20" cy="20" r="7"/>
    <circle cx="90" cy="20" r="7"/>
    <circle cx="20" cy="90" r="7"/>
    <circle cx="90" cy="90" r="7"/>
    <circle cx="55" cy="55" r="9"/>
    <path d="M20 27v34a10 10 0 0 0 10 10h15"/>
    <path d="M90 27v34a10 10 0 0 0 -10 10h-15"/>
    <path d="M20 83v-20a10 10 0 0 1 10 -10h10"/>
    <path d="M90 83v-20a10 10 0 0 0 -10 -10h-10"/>
  </g>
  <text x="90" y="330" font-family="Arial, Helvetica, sans-serif" font-size="62" font-weight="700" fill="#ffffff">RangkaiPCB</text>
  <text x="90" y="385" font-family="Arial, Helvetica, sans-serif" font-size="30" fill="#dff1fb">Jasa Desain PCB &#183; Skematik, Layout &amp; Gerber Siap Fabrikasi</text>
  <text x="90" y="425" font-family="Arial, Helvetica, sans-serif" font-size="24" fill="#a9d6ef">Untuk proyek sekolah, tugas kuliah, dan proyek mandiri</text>
  <g transform="translate(90,500)" font-family="Arial, Helvetica, sans-serif" font-size="22" fill="#dff1fb">
    <text x="0" y="0">Mulai dari Rp 100.000</text>
    <text x="0" y="34">Konsultasi awal gratis</text>
  </g>
</svg>
