<!--
  CATATAN KEAMANAN: Ini adalah QR SIMULASI (pola kotak-kotak acak, tidak
  mengkodekan data pembayaran apa pun dan tidak bisa di-scan sebagai QR
  pembayaran nyata). JANGAN ganti file ini dengan QR DANA/Bank Jago/e-wallet
  asli. Halaman statis bersifat publik, siapa pun bisa mengakses URL-nya.
  QR pembayaran asli dikirim secara privat via email setelah pesanan
  dikonfirmasi, tidak pernah ditaruh di file statis publik seperti ini.
-->
<svg viewBox="0 0 168 168" xmlns="http://www.w3.org/2000/svg" role="img" aria-label="Contoh QR simulasi, bukan QR pembayaran asli">
    <rect width="168" height="168" fill="#fff"/>
    <g fill="#111">
        <rect x="64" y="0" width="8" height="8"/>
    <rect x="72" y="0" width="8" height="8"/>
    <rect x="80" y="0" width="8" height="8"/>
    <rect x="56" y="8" width="8" height="8"/>
    <rect x="64" y="8" width="8" height="8"/>
    <rect x="72" y="8" width="8" height="8"/>
    <rect x="80" y="8" width="8" height="8"/>
    <rect x="96" y="8" width="8" height="8"/>
    <rect x="104" y="8" width="8" height="8"/>
    <rect x="72" y="16" width="8" height="8"/>
    <rect x="96" y="16" width="8" height="8"/>
    <rect x="64" y="24" width="8" height="8"/>
    <rect x="72" y="24" width="8" height="8"/>
    <rect x="88" y="24" width="8" height="8"/>
    <rect x="96" y="24" width="8" height="8"/>
    <rect x="104" y="24" width="8" height="8"/>
    <rect x="104" y="32" width="8" height="8"/>
    <rect x="104" y="40" width="8" height="8"/>
    <rect x="56" y="48" width="8" height="8"/>
    <rect x="64" y="48" width="8" height="8"/>
    <rect x="72" y="48" width="8" height="8"/>
    <rect x="80" y="48" width="8" height="8"/>
    <rect x="88" y="48" width="8" height="8"/>
    <rect x="96" y="48" width="8" height="8"/>
    <rect x="0" y="56" width="8" height="8"/>
    <rect x="8" y="56" width="8" height="8"/>
    <rect x="16" y="56" width="8" height="8"/>
    <rect x="24" y="56" width="8" height="8"/>
    <rect x="56" y="56" width="8" height="8"/>
    <rect x="72" y="56" width="8" height="8"/>
    <rect x="80" y="56" width="8" height="8"/>
    <rect x="136" y="56" width="8" height="8"/>
    <rect x="144" y="56" width="8" height="8"/>
    <rect x="152" y="56" width="8" height="8"/>
    <rect x="160" y="56" width="8" height="8"/>
    <rect x="0" y="64" width="8" height="8"/>
    <rect x="24" y="64" width="8" height="8"/>
    <rect x="40" y="64" width="8" height="8"/>
    <rect x="56" y="64" width="8" height="8"/>
    <rect x="64" y="64" width="8" height="8"/>
    <rect x="72" y="64" width="8" height="8"/>
    <rect x="88" y="64" width="8" height="8"/>
    <rect x="112" y="64" width="8" height="8"/>
    <rect x="120" y="64" width="8" height="8"/>
    <rect x="144" y="64" width="8" height="8"/>
    <rect x="152" y="64" width="8" height="8"/>
    <rect x="160" y="64" width="8" height="8"/>
    <rect x="16" y="72" width="8" height="8"/>
    <rect x="24" y="72" width="8" height="8"/>
    <rect x="32" y="72" width="8" height="8"/>
    <rect x="72" y="72" width="8" height="8"/>
    <rect x="104" y="72" width="8" height="8"/>
    <rect x="120" y="72" width="8" height="8"/>
    <rect x="128" y="72" width="8" height="8"/>
    <rect x="136" y="72" width="8" height="8"/>
    <rect x="160" y="72" width="8" height="8"/>
    <rect x="8" y="80" width="8" height="8"/>
    <rect x="32" y="80" width="8" height="8"/>
    <rect x="56" y="80" width="8" height="8"/>
    <rect x="96" y="80" width="8" height="8"/>
    <rect x="104" y="80" width="8" height="8"/>
    <rect x="112" y="80" width="8" height="8"/>
    <rect x="144" y="80" width="8" height="8"/>
    <rect x="152" y="80" width="8" height="8"/>
    <rect x="8" y="88" width="8" height="8"/>
    <rect x="16" y="88" width="8" height="8"/>
    <rect x="24" y="88" width="8" height="8"/>
    <rect x="48" y="88" width="8" height="8"/>
    <rect x="56" y="88" width="8" height="8"/>
    <rect x="72" y="88" width="8" height="8"/>
    <rect x="88" y="88" width="8" height="8"/>
    <rect x="96" y="88" width="8" height="8"/>
    <rect x="120" y="88" width="8" height="8"/>
    <rect x="128" y="88" width="8" height="8"/>
    <rect x="152" y="88" width="8" height="8"/>
    <rect x="0" y="96" width="8" height="8"/>
    <rect x="8" y="96" width="8" height="8"/>
    <rect x="16" y="96" width="8" height="8"/>
    <rect x="32" y="96" width="8" height="8"/>
    <rect x="40" y="96" width="8" height="8"/>
    <rect x="48" y="96" width="8" height="8"/>
    <rect x="64" y="96" width="8" height="8"/>
    <rect x="88" y="96" width="8" height="8"/>
    <rect x="96" y="96" width="8" height="8"/>
    <rect x="112" y="96" width="8" height="8"/>
    <rect x="120" y="96" width="8" height="8"/>
    <rect x="144" y="96" width="8" height="8"/>
    <rect x="0" y="104" width="8" height="8"/>
    <rect x="8" y="104" width="8" height="8"/>
    <rect x="16" y="104" width="8" height="8"/>
    <rect x="24" y="104" width="8" height="8"/>
    <rect x="32" y="104" width="8" height="8"/>
    <rect x="64" y="104" width="8" height="8"/>
    <rect x="72" y="104" width="8" height="8"/>
    <rect x="80" y="104" width="8" height="8"/>
    <rect x="96" y="104" width="8" height="8"/>
    <rect x="104" y="104" width="8" height="8"/>
    <rect x="112" y="104" width="8" height="8"/>
    <rect x="120" y="104" width="8" height="8"/>
    <rect x="128" y="104" width="8" height="8"/>
    <rect x="136" y="104" width="8" height="8"/>
    <rect x="152" y="104" width="8" height="8"/>
    <rect x="64" y="112" width="8" height="8"/>
    <rect x="112" y="112" width="8" height="8"/>
    <rect x="120" y="112" width="8" height="8"/>
    <rect x="128" y="112" width="8" height="8"/>
    <rect x="136" y="112" width="8" height="8"/>
    <rect x="144" y="112" width="8" height="8"/>
    <rect x="152" y="112" width="8" height="8"/>
    <rect x="56" y="120" width="8" height="8"/>
    <rect x="72" y="120" width="8" height="8"/>
    <rect x="80" y="120" width="8" height="8"/>
    <rect x="120" y="120" width="8" height="8"/>
    <rect x="128" y="120" width="8" height="8"/>
    <rect x="56" y="128" width="8" height="8"/>
    <rect x="88" y="128" width="8" height="8"/>
    <rect x="104" y="128" width="8" height="8"/>
    <rect x="112" y="128" width="8" height="8"/>
    <rect x="136" y="128" width="8" height="8"/>
    <rect x="144" y="128" width="8" height="8"/>
    <rect x="160" y="128" width="8" height="8"/>
    <rect x="72" y="136" width="8" height="8"/>
    <rect x="104" y="136" width="8" height="8"/>
    <rect x="120" y="136" width="8" height="8"/>
    <rect x="128" y="136" width="8" height="8"/>
    <rect x="144" y="136" width="8" height="8"/>
    <rect x="152" y="136" width="8" height="8"/>
    <rect x="56" y="144" width="8" height="8"/>
    <rect x="64" y="144" width="8" height="8"/>
    <rect x="88" y="144" width="8" height="8"/>
    <rect x="96" y="144" width="8" height="8"/>
    <rect x="104" y="144" width="8" height="8"/>
    <rect x="136" y="144" width="8" height="8"/>
    <rect x="144" y="144" width="8" height="8"/>
    <rect x="80" y="152" width="8" height="8"/>
    <rect x="96" y="152" width="8" height="8"/>
    <rect x="120" y="152" width="8" height="8"/>
    <rect x="128" y="152" width="8" height="8"/>
    <rect x="136" y="152" width="8" height="8"/>
    <rect x="152" y="152" width="8" height="8"/>
    <rect x="64" y="160" width="8" height="8"/>
    <rect x="80" y="160" width="8" height="8"/>
    <rect x="88" y="160" width="8" height="8"/>
    <rect x="112" y="160" width="8" height="8"/>
    <rect x="120" y="160" width="8" height="8"/>
    <rect x="128" y="160" width="8" height="8"/>
    <rect x="136" y="160" width="8" height="8"/>
    <rect x="160" y="160" width="8" height="8"/>
    </g>
    <rect x="0" y="0" width="56" height="56" fill="#111"/>
    <rect x="8" y="8" width="40" height="40" fill="#fff"/>
    <rect x="16" y="16" width="24" height="24" fill="#111"/>
    <rect x="0" y="112" width="56" height="56" fill="#111"/>
    <rect x="8" y="120" width="40" height="40" fill="#fff"/>
    <rect x="16" y="128" width="24" height="24" fill="#111"/>
    <rect x="112" y="0" width="56" height="56" fill="#111"/>
    <rect x="120" y="8" width="40" height="40" fill="#fff"/>
    <rect x="128" y="16" width="24" height="24" fill="#111"/>
</svg>
