<svg xmlns="http://www.w3.org/2000/svg" viewBox="0 0 64 64" role="img" aria-label="RangkaiPCB logo">
  <rect width="64" height="64" rx="14" fill="#0a5c8a"/>
  <g fill="none" stroke="#ffffff" stroke-width="3" stroke-linecap="round" stroke-linejoin="round">
    <circle cx="14" cy="14" r="3.2"/>
    <circle cx="50" cy="14" r="3.2"/>
    <circle cx="14" cy="50" r="3.2"/>
    <circle cx="50" cy="50" r="3.2"/>
    <circle cx="32" cy="32" r="4.2"/>
    <path d="M14 17.2v9a4 4 0 0 0 4 4h10"/>
    <path d="M50 17.2v9a4 4 0 0 1 -4 4h-10"/>
    <path d="M14 46.8v-9a4 4 0 0 1 4 -4h4"/>
    <path d="M50 46.8v-9a4 4 0 0 0 -4 -4h-4"/>
  </g>
</svg>
